<svg width="20" height="20" viewBox="0 0 20 20" fill="none" xmlns="http://www.w3.org/2000/svg">
<path d="M20 0H0V20H20V0Z" fill="#E2C980"/>
<path d="M18.1342 8.97961H13.4111V10.8455H18.1342V8.97961Z" fill="white"/>
<path d="M17.8426 5.13124C16.6764 6.29742 15.0437 7.17206 13.3528 7.75515V5.71433C14.5773 5.24786 15.6852 4.60645 16.5015 3.73181L17.8426 5.13124Z" fill="white"/>
<path d="M17.8426 14.7521L16.5015 16.0933C15.6852 15.2769 14.5773 14.6355 13.3528 14.1108V12.0699C15.0437 12.7113 16.6764 13.5277 17.8426 14.7521Z" fill="white"/>
<path d="M11.895 2.68225H10.0291V17.1429H11.895V2.68225Z" fill="white"/>
<path d="M8.74623 2.68225H6.88037V17.1429H8.74623V2.68225Z" fill="white"/>
<path d="M4.83963 5.94747C4.83963 6.53056 4.37312 6.99702 3.79003 6.99702C3.20694 6.99702 2.74048 6.53056 2.74048 5.94747C2.74048 5.36437 3.20694 4.89787 3.79003 4.89787C4.37312 4.83956 4.83963 5.36437 4.83963 5.94747Z" fill="white"/>
<path d="M5.71438 10.1457C5.71438 10.7288 5.24788 11.1953 4.66479 11.1953C4.0817 11.1953 3.61523 10.7288 3.61523 10.1457C3.61523 9.56266 4.0817 9.09619 4.66479 9.09619C5.24788 9.09619 5.71438 9.56266 5.71438 10.1457Z" fill="white"/>
<path d="M4.83963 14.0525C4.83963 14.6356 4.37312 15.102 3.79003 15.102C3.20694 15.102 2.74048 14.6356 2.74048 14.0525C2.74048 13.4694 3.20694 13.0029 3.79003 13.0029C4.37312 13.0029 4.83963 13.4694 4.83963 14.0525Z" fill="white"/>
</svg>
