<svg width="20" height="20" viewBox="0 0 20 20" fill="none" xmlns="http://www.w3.org/2000/svg">
<path d="M20 0H0V20H20V0Z" fill="#DA7577"/>
<path d="M15.0436 10.3207C13.3527 14.6356 14.5772 17.0845 14.6355 17.1428H12.653C12.3031 15.86 11.895 13.2945 13.2944 9.621C14.8104 5.65599 13.6442 3.03208 13.5276 2.74054H15.5101C15.9766 4.08165 16.4431 6.82217 15.0436 10.3207Z" fill="white"/>
<path d="M10.9037 10.3207C9.27105 14.6356 10.4373 17.0845 10.4956 17.1428H8.51304C8.10488 15.86 7.75501 13.2945 9.15443 9.621C10.6705 5.65599 9.5043 3.03208 9.38768 2.74054H11.3702C11.7784 4.08165 12.2448 6.82217 10.9037 10.3207Z" fill="white"/>
<path d="M6.76384 10.3207C5.07288 14.6356 6.29736 17.0845 6.35567 17.1428H4.37318C4.02333 15.86 3.61515 13.2945 5.01457 9.621C6.53061 5.65599 5.36444 3.03208 5.24782 2.74054H7.23031C7.63847 4.08165 8.10495 6.82217 6.76384 10.3207Z" fill="white"/>
</svg>
