<svg width="20" height="20" viewBox="0 0 20 20" fill="none" xmlns="http://www.w3.org/2000/svg">
<path d="M20 0H0V20H20V0Z" fill="#BE7454"/>
<path d="M5.83087 17.3761C3.84836 17.3761 2.79883 15.9184 2.79883 14.4606V2.68219H4.66469V14.4606C4.66469 15.4519 5.65594 15.5102 5.83087 15.5102C6.0058 15.5102 6.99705 15.4519 6.99705 14.4606V10.8455H8.86295V14.4606C8.86295 15.9184 7.81338 17.3761 5.83087 17.3761Z" fill="white"/>
<path d="M14.2274 17.3761C12.2449 17.3761 11.1953 15.9184 11.1953 14.4606V10.8455H13.0612V14.4606C13.0612 15.4519 14.0525 15.5102 14.2274 15.5102C14.4023 15.5102 15.3936 15.4519 15.3936 14.4606V2.68219H17.2595V14.4606C17.2595 15.9184 16.2099 17.3761 14.2274 17.3761Z" fill="white"/>
<path d="M6.99707 10.8455V5.83092C6.99707 4.37319 8.04664 2.91547 10.0291 2.91547C12.0117 2.91547 13.0612 4.37319 13.0612 5.83092V10.8455H11.1953V5.83092C11.1953 4.83967 10.2041 4.78136 10.0291 4.78136C9.85422 4.78136 8.86297 4.83967 8.86297 5.83092V10.8455H6.99707Z" fill="white"/>
</svg>
