<svg width="20" height="20" viewBox="0 0 20 20" fill="none" xmlns="http://www.w3.org/2000/svg">
<path d="M20 0H0V20H20V0Z" fill="#7ABC97"/>
<path d="M7.7551 5.53937V7.52185L2.79883 8.92129V6.99709L7.7551 5.53937Z" fill="white"/>
<path d="M17.2012 2.79883V4.78135L12.3032 6.18075V4.25655L17.2012 2.79883Z" fill="white"/>
<path d="M7.7551 9.67926V11.6035L2.79883 13.0612V11.0787L7.7551 9.67926Z" fill="white"/>
<path d="M17.2012 6.93878V8.86301L12.3032 10.3207V8.33821L17.2012 6.93878Z" fill="white"/>
<path d="M7.7551 13.7609V15.7434L2.79883 17.1428V15.2187L7.7551 13.7609Z" fill="white"/>
<path d="M17.2012 11.0204V13.0029L12.3032 14.4023V12.4781L17.2012 11.0204Z" fill="white"/>
<path d="M11.0786 14.2274C11.0786 14.8105 10.6121 15.277 10.029 15.277C9.44596 15.277 8.97949 14.8105 8.97949 14.2274C8.97949 13.6443 9.44596 13.1779 10.029 13.1779C10.6121 13.1779 11.0786 13.6443 11.0786 14.2274Z" fill="white"/>
<path d="M11.0786 10.0875C11.0786 10.6705 10.6121 11.137 10.029 11.137C9.44596 11.137 8.97949 10.6705 8.97949 10.0875C8.97949 9.50437 9.44596 9.0379 10.029 9.0379C10.6121 9.0379 11.0786 9.50437 11.0786 10.0875Z" fill="white"/>
<path d="M11.0786 5.94754C11.0786 6.53063 10.6121 6.9971 10.029 6.9971C9.44596 6.9971 8.97949 6.53063 8.97949 5.94754C8.97949 5.36445 9.44596 4.89795 10.029 4.89795C10.6121 4.89795 11.0786 5.36445 11.0786 5.94754Z" fill="white"/>
</svg>
