<svg width="20" height="20" viewBox="0 0 20 20" fill="none" xmlns="http://www.w3.org/2000/svg">
<path d="M20 0H0V20H20V0Z" fill="#6F6F93"/>
<path d="M15.1605 13.0612L9.85434 15.9767L4.78144 13.1195V7.7551L9.97096 10.4956L15.1605 7.7551V13.0612ZM9.97096 4.02331L14.4024 6.00583L9.97096 8.33819L5.53949 6.00583L9.97096 4.02331ZM16.5016 4.89794L13.9943 3.73176L10.0293 1.92419L6.47242 3.49855L6.00596 3.73176L3.49867 4.89794L2.97388 5.13119V14.1691L9.91267 18.1341L17.143 14.1691V5.13119L16.5016 4.89794Z" fill="white"/>
<path d="M10.9037 9.50439H9.03784V16.6181H10.9037V9.50439Z" fill="white"/>
<path d="M7.58029 11.0787L6.12256 10.2623V8.33813L7.58029 9.15448V11.0787Z" fill="white"/>
<path d="M7.58029 14.6356L6.12256 13.8776V11.9534L7.58029 12.7114V14.6356Z" fill="white"/>
</svg>
