<svg width="20" height="20" viewBox="0 0 20 20" fill="none" xmlns="http://www.w3.org/2000/svg">
<path d="M20 0H0V20H20V0Z" fill="#6089A6"/>
<path d="M7.17203 9.97088C7.17203 10.3207 7.23031 10.7289 7.40524 11.0204C6.82215 11.1371 6.06413 11.1954 5.36442 11.1954C4.48979 11.1954 3.67348 11.0787 3.09039 10.6706C2.68223 10.379 2.44898 9.97085 2.39068 9.50438C2.09913 7.46356 2.68223 4.54813 7.17203 2.27408L8.04666 3.96502C5.30614 5.36444 4.02332 7.11372 4.31487 9.15454C4.72303 9.32947 6.00582 9.32948 7.40524 9.09624C7.23031 9.38779 7.17203 9.67934 7.17203 9.97088Z" fill="white"/>
<path d="M17.551 11.7202L15.6851 11.5452C15.9766 8.51313 15.2186 6.47234 13.3527 5.5977C13.0028 5.83094 12.3615 6.76388 11.8367 7.93007C11.3702 7.5219 10.7871 7.23033 10.0874 7.17202C10.6705 5.94753 11.5451 4.25657 12.653 3.7901C13.1195 3.61517 13.586 3.61517 13.9941 3.7901C15.9766 4.66474 18.0757 6.76388 17.551 11.7202Z" fill="white"/>
<path d="M13.7611 15.3353C13.7028 15.8017 13.4696 16.2099 13.1198 16.5014C12.2451 17.1428 11.1373 17.6676 9.62122 17.6676C8.2218 17.6676 6.4725 17.1429 4.48999 15.8018L5.53958 14.2274C8.04687 15.9767 10.2043 16.2682 11.8952 15.0437C11.8952 14.6356 11.3121 13.6443 10.6124 12.6531C11.2538 12.5364 11.837 12.1283 12.2451 11.6618C12.9448 12.7697 13.8195 14.2274 13.7611 15.3353Z" fill="white"/>
</svg>
